<?xml version="1.0" encoding="UTF-8"?><svg id="Layer_1" xmlns="http://www.w3.org/2000/svg" viewBox="0 0 779.251 151.742"><defs><style>.cls-1{fill:#ef6f22;}.cls-2{fill:#172a53;}.cls-3{fill:#eb4d24;stroke:#7f7f81;stroke-width:.386px;}.cls-4{fill:#007a6c;}</style></defs><path class="cls-3" d="M103.075,61.71c4.937,0,9.444.004,13.524.01,1.428.004,2.878-.023,4.231.131,3.274.372,6.058,1.775,8.352,4.206,4.096,4.341,5.168,10.835,2.167,16.109-2.153,3.783-5.402,6.216-9.675,6.941-.72.122-2.637.179-5.757.17-6.808-.021-12.062-.023-15.758-.006-2.628.012-5.003-.278-7.262-1.171-3.129-1.235-4.939-1.931-5.431-2.087-4.374-1.383-8.697-1.636-12.972-.758-5.749,1.181-10.771,4.287-14.562,8.741-3.532,4.15-5.734,9.66-5.68,15.179.06,6.176,2.271,11.992,6.386,16.397,4.767,5.101,10.669,7.854,17.703,8.259,8.078.463,16.032-3.156,21.029-9.422,3.272-4.102,5.359-9.656,5.348-15.089-.004-2.261-.004-5.261.002-9.002,0-.054-.042-.096-.096-.096h-7.854c-.095,0-.172.077-.172.172.019,4.524.033,7.078.042,7.661.041,2.601-.16,4.657-1.086,6.853-.94,2.221-2.251,4.185-3.936,5.888-4.042,4.088-9.974,5.821-15.602,4.582-4.91-1.08-9.008-3.918-11.458-8.271-1.194-2.122-1.889-4.399-2.08-6.831-.345-4.399,1.349-8.265,4.269-11.523,2.093-2.334,4.595-3.963,7.503-4.887,2.857-.909,5.821-1.055,8.89-.44.774.156,1.873.502,3.297,1.04,1.628.615,2.705,1.023,3.228,1.225,1.555.596,3.316,1.055,5.282,1.377,1.15.187,2.88.278,5.19.272,2.456-.006,8.458-.01,18.006-.008,1.702,0,2.944-.048,3.729-.143,5.523-.668,10.615-3.627,14.267-7.802,6.565-7.509,6.851-19.059.561-26.952-3.922-4.922-9.035-7.802-15.334-8.643-.685-.091-1.634-.135-2.851-.133-3.309.008-6.289.014-8.944.019-.5,0-.909.037-1.227.104-.077.015-.145.064-.187.133-1.547,2.572-2.61,4.225-3.189,4.964-.646.824-1.31,1.705-1.989,2.641-.039.054-.025.129.027.166.019.014.044.021.069.023" vector-effect="non-scaling-stroke"/><path class="cls-2" d="M136.7,62.435c-3.922-4.922-9.035-7.802-15.334-8.643-.685-.091-1.634-.135-2.851-.133-3.309.008-6.289.014-8.944.019-.5.002-.909.037-1.227.104-.077.015-.145.064-.187.133-1.547,2.572-2.61,4.225-3.189,4.964-.646.824-1.31,1.705-1.989,2.641-.015.021-.023.044-.023.069,0,.066.054.12.12.12,4.937,0,9.444.004,13.524.01,1.428.004,2.878-.023,4.231.131,3.274.372,6.058,1.775,8.352,4.206,4.096,4.341,5.169,10.835,2.167,16.109-2.153,3.783-5.402,6.216-9.675,6.941-.72.122-2.637.179-5.757.17-4.355-.014-8.067-.019-11.149-.017v-18.413h-8.312v18.185c-1.228-.182-2.409-.477-3.559-.932-3.129-1.235-4.939-1.931-5.431-2.087-4.374-1.383-8.697-1.636-12.972-.758-5.749,1.181-10.771,4.287-14.562,8.741-3.532,4.15-5.734,9.66-5.68,15.179.06,6.176,2.271,11.992,6.386,16.397,4.767,5.101,10.669,7.854,17.703,8.259,8.078.463,16.032-3.156,21.029-9.422,3.272-4.102,5.359-9.656,5.348-15.089-.004-2.261-.004-5.261.002-9.002,0-.033-.034-.042-.059-.059h.107v-2.926c3.178-.002,7.621-.002,13.376-.002,1.702,0,2.944-.048,3.729-.143,5.524-.668,10.615-3.627,14.267-7.802,6.565-7.509,6.851-19.059.561-26.952ZM96.639,108.054c.041,2.601-.16,4.657-1.086,6.853-.94,2.221-2.252,4.185-3.936,5.888-4.042,4.088-9.974,5.821-15.602,4.582-4.91-1.08-9.008-3.918-11.458-8.271-1.194-2.122-1.889-4.399-2.08-6.832-.345-4.399,1.349-8.265,4.269-11.523,2.093-2.334,4.595-3.963,7.503-4.887,2.857-.909,5.821-1.055,8.89-.44.774.156,1.873.502,3.297,1.04,1.628.615,2.705,1.023,3.228,1.225,1.555.596,3.316,1.055,5.282,1.377.417.068.938.119,1.508.161v3.031h.275c-.066.024-.134.06-.134.134.019,4.524.033,7.078.043,7.661Z"/><path class="cls-2" d="M217.236,72.406c0,14.362-10.63,23.219-27.788,23.219h-14.733v18.836h-12.122V49.187h26.856c17.158,0,27.788,8.767,27.788,23.219ZM205.02,72.406c0-8.205-5.502-12.961-16.132-12.961h-14.174v25.923h14.174c10.63,0,16.132-4.754,16.132-12.961Z"/><path class="cls-2" d="M256.575,64.108v11.097c-1.025-.186-1.864-.28-2.704-.28-8.859,0-14.454,5.22-14.454,15.385v24.151h-11.655v-49.794h11.096v7.273c3.357-5.222,9.418-7.832,17.717-7.832Z"/><path class="cls-2" d="M314.663,64.667v49.794h-11.097v-6.434c-3.917,4.756-9.699,7.087-16.505,7.087-14.547,0-25.178-10.069-25.178-25.55s10.631-25.456,25.178-25.456c6.34,0,11.935,2.144,15.945,6.62v-6.061h11.656ZM303.193,89.565c0-9.512-6.341-15.573-14.826-15.573-8.394,0-14.735,6.061-14.735,15.573s6.341,15.573,14.735,15.573c8.485,0,14.826-6.061,14.826-15.573Z"/><path class="cls-2" d="M325.843,89.565c0-14.919,11.188-25.456,26.948-25.456,9.699,0,17.438,4.008,21.262,11.563l-8.953,5.222c-2.983-4.756-7.459-6.902-12.402-6.902-8.578,0-15.105,5.968-15.105,15.573,0,9.699,6.527,15.573,15.105,15.573,4.943,0,9.419-2.146,12.402-6.9l8.953,5.22c-3.824,7.462-11.563,11.656-21.262,11.656-15.76,0-26.948-10.629-26.948-25.55Z"/><path class="cls-2" d="M411.62,111.758c-2.799,2.237-6.993,3.356-11.19,3.356-10.911,0-17.158-5.782-17.158-16.783v-44.667h11.656v11.377h13.334v9.326h-13.334v23.683c0,4.849,2.519,7.462,6.9,7.462,2.426,0,4.756-.653,6.527-2.053l3.265,8.3Z"/><path class="cls-2" d="M444.059,89.565c0-14.919,11.188-25.456,26.948-25.456,9.698,0,17.437,4.008,21.261,11.563l-8.953,5.222c-2.983-4.756-7.458-6.902-12.401-6.902-8.578,0-15.105,5.968-15.105,15.573,0,9.699,6.527,15.573,15.105,15.573,4.943,0,9.418-2.146,12.401-6.9l8.953,5.22c-3.824,7.462-11.563,11.656-21.261,11.656-15.76,0-26.948-10.629-26.948-25.55Z"/><path class="cls-2" d="M538.791,99.823l6.154,7.18c-4.383,5.315-11.377,8.112-19.957,8.112-16.692,0-27.507-10.722-27.507-25.55s10.815-25.456,25.643-25.456c13.893,0,25.084,9.324,25.177,24.897l-38.138,7.459c2.424,5.688,7.832,8.767,15.105,8.767,5.595,0,9.885-1.773,13.523-5.409ZM508.762,88.912v.093l28.162-5.409c-1.585-6.061-6.807-10.165-13.8-10.165-8.487,0-14.362,5.968-14.362,15.48Z"/><path class="cls-2" d="M560.597,49.187h12.122v55.019h34.13v10.256h-46.252V49.187Z"/><path class="cls-2" d="M691.319,85.927v28.535h-11.656v-27.041c0-8.86-4.383-13.148-11.843-13.148-8.3,0-13.896,5.034-13.896,15.012v25.177h-11.656v-49.794h11.097v6.434c3.824-4.57,9.885-6.993,17.158-6.993,11.936,0,20.796,6.807,20.796,21.819Z"/><path class="cls-2" d="M726.461,93.109l-8.673,8.205v13.148h-11.656V45.272h11.656v41.776l24.151-22.38h13.989l-20.796,20.887,22.753,28.908h-14.173l-17.251-21.353Z"/><circle class="cls-2" cx="427.84" cy="64.667" r="7.966"/><path class="cls-2" d="M427.045,77.58c-2.31,0-4.373-.999-5.828-2.57v39.451h11.656v-39.451c-1.455,1.571-3.518,2.57-5.828,2.57Z"/><path class="cls-2" d="M621.378,77.58c-2.31,0-4.373-.999-5.828-2.57v39.451h11.656v-39.451c-1.455,1.571-3.518,2.57-5.828,2.57Z"/><circle class="cls-2" cx="621.378" cy="64.667" r="7.966"/><path class="cls-4" d="M104.279,35.964c-.897-4.406-2.952-8.357-5.853-11.551-2.901-3.194-6.648-5.632-10.929-7.012-1.05-.339-2.066-.606-3.046-.801-.98-.195-1.924-.319-2.833-.37-1.638-.091-2.94-.104-3.909-.038-7.613.523-14.637,4.403-19.017,10.644-1.068,1.522-1.947,3.136-2.636,4.841-.69,1.705-1.19,3.502-1.502,5.39-.057.345-.105.737-.145,1.175-.119,1.316-.162,3.054-.127,5.214.005.316.009,1.365.012,3.148.002,1.07.003,2.404.004,4.002v3.065c-4.158.004-7.369.007-9.537.006-.589,0-1.104,0-1.546,0-.884,0-1.475-.003-1.773-.005h0c-.734-.006-1.444.01-2.135.051-2.074.122-3.978.462-5.856,1.068-4.158,1.341-7.657,3.675-10.499,7.003-3.689,4.32-5.564,10.136-4.987,15.795.704,6.88,4.615,12.818,10.462,16.435,3.556,2.201,7.428,3.297,11.618,3.287,4.175-.01,7.646-.014,10.414-.015.212,0,.409-.114.515-.299,1.526-2.664,3.278-5.155,5.259-7.472.004-.006.008-.01.011-.015.02-.03-.014-.057-.02-.09-.004-.033.02-.068-.007-.091-.004-.004-.01-.008-.015-.011-.041-.027-.104-.041-.195-.041-7.036,0-12.164-.002-15.386-.01-4.24-.01-8.228-1.476-11.001-4.568-1.364-1.526-2.331-3.216-2.9-5.074-.517-1.692-.727-3.237-.633-4.638.078-1.158.266-2.25.563-3.278.297-1.028.703-1.991,1.22-2.889.516-.898,1.141-1.732,1.876-2.5.735-.769,1.579-1.472,2.533-2.111,2.282-1.53,4.781-2.342,7.491-2.441.178-.006.43-.012.756-.017,1.948-.029,6.542-.03,13.772-.003v13.117c1.127-.881,2.542-1.411,4.083-1.411,1.607,0,3.08.571,4.228,1.52v-12.972c.823.103,1.64.237,2.467.456.461.122,1.354.43,2.678.924,2.584.967,4.437,1.634,6.372,2.085.645.151,1.299.277,1.993.383.626.096,1.256.163,1.889.203,4.428.28,8.971-.773,12.928-2.811,4.343-2.238,7.869-5.628,10.274-9.657.687-1.151,1.283-2.355,1.779-3.598.497-1.244.895-2.527,1.188-3.839.293-1.312.479-2.652.553-4.008.037-.678.046-1.36.026-2.045-.041-1.37-.197-2.749-.477-4.127ZM94.996,48.045c-1.728,3.567-4.707,6.567-8.274,8.225-1.045.486-2.104.829-3.171,1.096-2.617.654-5.296.683-8.044.021-1.347-.325-2.703-.812-4.019-1.309-1.316-.497-2.591-1.005-3.773-1.373-1.15-.357-2.575-.652-4.279-.886-.218-.03-.503-.054-.827-.075v-3.139h-.165c-.019-3.923-.026-7.472-.019-10.642.002-.727.096-1.484.284-2.265.601-2.504,1.59-4.693,2.966-6.566,1.377-1.873,3.142-3.43,5.295-4.672.537-.309,1.099-.583,1.677-.822,1.156-.478,2.378-.82,3.595-1.038.609-.109,1.216-.187,1.814-.236.909-.074,1.804-.082,2.684-.023,2.641.174,5.152.943,7.533,2.308,5.294,3.029,8.321,8.44,8.34,14.531.007,2.38-.58,4.724-1.617,6.864Z"/><circle class="cls-1" cx="58.464" cy="81.572" r="5.701"/></svg>