<?xml version="1.0" encoding="utf-8"?>
<!-- Generator: Adobe Adobe Illustrator 29.2.0, SVG Export Plug-In . SVG Version: 6.00 Build 0)  -->
<svg version="1.1" id="Layer_1" xmlns="http://www.w3.org/2000/svg" xmlns:xlink="http://www.w3.org/1999/xlink" x="0px" y="0px"
	 viewBox="0 0 800 800" style="enable-background:new 0 0 800 800;" xml:space="preserve">
<style type="text/css">
	.st0{fill:#EB4D24;stroke:#7F7F81;stroke-width:0.386;}
	.st1{fill:#172A53;}
	.st2{fill:#007A6C;}
	.st3{fill:#EF6F22;}
</style>
<g>
	<path vector-effect="non-scaling-stroke" class="st0" d="M511.53,336.93c23.41,0,44.78,0.02,64.13,0.05
		c6.77,0.02,13.65-0.11,20.06,0.62c15.53,1.76,28.73,8.42,39.61,19.94c19.42,20.59,24.51,51.38,10.28,76.39
		c-10.21,17.94-25.62,29.48-45.88,32.91c-3.41,0.58-12.5,0.85-27.3,0.81c-32.28-0.1-57.2-0.11-74.72-0.03
		c-12.46,0.06-23.72-1.32-34.44-5.55c-14.84-5.86-23.42-9.16-25.75-9.9c-20.74-6.56-41.24-7.76-61.51-3.59
		c-27.26,5.6-51.08,20.33-69.05,41.45c-16.75,19.68-27.19,45.81-26.93,71.98c0.28,29.29,10.77,56.87,30.28,77.75
		c22.61,24.19,50.59,37.24,83.95,39.16c38.31,2.2,76.02-14.97,99.72-44.68c15.52-19.45,25.41-45.79,25.36-71.55
		c-0.02-10.72-0.02-24.95,0.01-42.69c0-0.26-0.2-0.46-0.46-0.46h-37.24c-0.45,0-0.82,0.37-0.82,0.82
		c0.09,21.45,0.16,33.56,0.2,36.33c0.19,12.33-0.76,22.08-5.15,32.5c-4.46,10.53-10.67,19.85-18.66,27.92
		c-19.17,19.39-47.3,27.6-73.98,21.73c-23.28-5.12-42.72-18.58-54.33-39.22c-5.66-10.06-8.96-20.86-9.86-32.39
		c-1.64-20.86,6.4-39.19,20.24-54.64c9.93-11.07,21.79-18.79,35.58-23.17c13.55-4.31,27.6-5,42.16-2.09
		c3.67,0.74,8.88,2.38,15.63,4.93c7.72,2.92,12.83,4.85,15.31,5.81c7.37,2.83,15.72,5,25.05,6.53c5.45,0.89,13.66,1.32,24.61,1.29
		c11.65-0.03,40.11-0.05,85.38-0.04c8.07,0,13.96-0.23,17.68-0.68c26.19-3.17,50.34-17.2,67.65-37
		c31.13-35.61,32.49-90.38,2.66-127.81c-18.6-23.34-42.84-37-72.71-40.99c-3.25-0.43-7.75-0.64-13.52-0.63
		c-15.69,0.04-29.82,0.07-42.41,0.09c-2.37,0-4.31,0.18-5.82,0.49c-0.37,0.07-0.69,0.3-0.89,0.63
		c-7.34,12.2-12.38,20.04-15.12,23.54c-3.06,3.91-6.21,8.09-9.43,12.52c-0.18,0.26-0.12,0.61,0.13,0.79
		C511.3,336.88,511.42,336.91,511.53,336.93"/>
	<path class="st1" d="M670.98,340.37c-18.6-23.34-42.84-37-72.71-40.99c-3.25-0.43-7.75-0.64-13.52-0.63
		c-15.69,0.04-29.82,0.07-42.41,0.09c-2.37,0.01-4.31,0.18-5.82,0.49c-0.37,0.07-0.69,0.3-0.89,0.63
		c-7.34,12.2-12.38,20.04-15.12,23.54c-3.06,3.91-6.21,8.09-9.43,12.52c-0.07,0.1-0.11,0.21-0.11,0.33c0,0.31,0.26,0.57,0.57,0.57
		c23.41,0,44.78,0.02,64.13,0.05c6.77,0.02,13.65-0.11,20.06,0.62c15.53,1.76,28.73,8.42,39.61,19.94
		c19.42,20.59,24.51,51.38,10.28,76.39c-10.21,17.94-25.62,29.48-45.88,32.91c-3.41,0.58-12.5,0.85-27.3,0.81
		c-20.65-0.07-38.25-0.09-52.87-0.08v-87.31h-39.42v86.23c-5.82-0.86-11.42-2.26-16.88-4.42c-14.84-5.86-23.42-9.16-25.75-9.9
		c-20.74-6.56-41.24-7.76-61.51-3.59c-27.26,5.6-51.08,20.33-69.05,41.45c-16.75,19.68-27.19,45.81-26.93,71.98
		c0.28,29.29,10.77,56.87,30.28,77.75c22.61,24.19,50.59,37.24,83.95,39.16c38.31,2.2,76.02-14.97,99.72-44.68
		c15.52-19.45,25.41-45.79,25.36-71.55c-0.02-10.72-0.02-24.95,0.01-42.69c0-0.16-0.16-0.2-0.28-0.28h0.51v-13.88
		c15.07-0.01,36.14-0.01,63.43-0.01c8.07,0,13.96-0.23,17.68-0.68c26.19-3.17,50.34-17.2,67.65-37
		C699.46,432.56,700.82,377.79,670.98,340.37L670.98,340.37z M481.01,556.69c0.19,12.33-0.76,22.08-5.15,32.5
		c-4.46,10.53-10.68,19.85-18.66,27.92c-19.17,19.39-47.3,27.6-73.98,21.73c-23.28-5.12-42.72-18.58-54.33-39.22
		c-5.66-10.06-8.96-20.86-9.86-32.4c-1.64-20.86,6.4-39.19,20.24-54.64c9.93-11.07,21.79-18.79,35.58-23.17
		c13.55-4.31,27.6-5,42.16-2.09c3.67,0.74,8.88,2.38,15.63,4.93c7.72,2.92,12.83,4.85,15.31,5.81c7.37,2.83,15.72,5,25.05,6.53
		c1.98,0.32,4.45,0.56,7.15,0.76v14.37h1.3c-0.31,0.11-0.64,0.28-0.64,0.64C480.9,541.81,480.96,553.92,481.01,556.69L481.01,556.69
		z"/>
	<path class="st2" d="M517.24,214.84c-4.25-20.89-14-39.63-27.76-54.78c-13.76-15.15-31.52-26.71-51.83-33.25
		c-4.98-1.61-9.8-2.87-14.44-3.8c-4.65-0.92-9.12-1.51-13.43-1.75c-7.77-0.43-13.94-0.49-18.54-0.18
		c-36.1,2.48-69.41,20.88-90.18,50.47c-5.06,7.22-9.23,14.87-12.5,22.96c-3.27,8.09-5.64,16.61-7.12,25.56
		c-0.27,1.64-0.5,3.49-0.69,5.57c-0.56,6.24-0.77,14.48-0.6,24.72c0.02,1.5,0.04,6.47,0.06,14.93c0.01,5.07,0.01,11.4,0.02,18.98
		v14.53c-19.72,0.02-34.94,0.03-45.22,0.03c-2.79,0-5.24,0-7.33,0c-4.19,0-6.99-0.01-8.41-0.02l0,0c-3.48-0.03-6.85,0.05-10.12,0.24
		c-9.83,0.58-18.86,2.19-27.77,5.06c-19.72,6.36-36.31,17.43-49.79,33.21c-17.49,20.49-26.38,48.07-23.65,74.9
		c3.34,32.63,21.88,60.78,49.61,77.94c16.86,10.44,35.22,15.63,55.09,15.59c19.8-0.05,36.26-0.07,49.38-0.07
		c1.01,0,1.94-0.54,2.44-1.42c7.24-12.63,15.54-24.45,24.94-35.43c0.02-0.03,0.04-0.05,0.05-0.07c0.09-0.14-0.07-0.27-0.09-0.43
		c-0.02-0.16,0.09-0.32-0.03-0.43c-0.02-0.02-0.05-0.04-0.07-0.05c-0.19-0.13-0.49-0.19-0.92-0.19c-33.36,0-57.68-0.01-72.96-0.05
		c-20.11-0.05-39.02-7-52.17-21.66c-6.47-7.24-11.05-15.25-13.75-24.06c-2.45-8.02-3.45-15.35-3-21.99
		c0.37-5.49,1.26-10.67,2.67-15.54c1.41-4.87,3.33-9.44,5.79-13.7c2.45-4.26,5.41-8.21,8.9-11.86c3.49-3.65,7.49-6.98,12.01-10.01
		c10.82-7.26,22.67-11.11,35.52-11.58c0.84-0.03,2.04-0.06,3.58-0.08c9.24-0.14,31.02-0.14,65.31-0.01v62.2
		c5.34-4.18,12.05-6.69,19.36-6.69c7.62,0,14.61,2.71,20.05,7.21v-61.51c3.9,0.49,7.78,1.12,11.7,2.16
		c2.19,0.58,6.42,2.04,12.7,4.38c12.25,4.59,21.04,7.75,30.22,9.89c3.06,0.72,6.16,1.31,9.45,1.82c2.97,0.46,5.96,0.77,8.96,0.96
		c21,1.33,42.54-3.67,61.3-13.33c20.59-10.61,37.31-26.69,48.72-45.79c3.26-5.46,6.08-11.17,8.44-17.06
		c2.36-5.9,4.24-11.98,5.63-18.2c1.39-6.22,2.27-12.58,2.62-19.01c0.18-3.22,0.22-6.45,0.12-9.7c-0.19-6.5-0.93-13.04-2.26-19.57
		L517.24,214.84z M473.22,272.13c-8.19,16.91-22.32,31.14-39.24,39c-4.96,2.3-9.98,3.93-15.04,5.2c-12.41,3.1-25.11,3.24-38.14,0.1
		c-6.39-1.54-12.82-3.85-19.06-6.21c-6.24-2.36-12.29-4.77-17.89-6.51c-5.45-1.69-12.21-3.09-20.29-4.2
		c-1.03-0.14-2.39-0.26-3.92-0.36v-14.89h-0.78c-0.09-18.6-0.12-35.43-0.09-50.46c0.01-3.45,0.46-7.04,1.35-10.74
		c2.85-11.87,7.54-22.25,14.06-31.14c6.53-8.88,14.9-16.27,25.11-22.15c2.55-1.47,5.21-2.76,7.95-3.9
		c5.48-2.27,11.28-3.89,17.05-4.92c2.89-0.52,5.77-0.89,8.6-1.12c4.31-0.35,8.55-0.39,12.73-0.11c12.52,0.83,24.43,4.47,35.72,10.94
		c25.1,14.36,39.46,40.02,39.55,68.91C480.92,250.86,478.14,261.98,473.22,272.13L473.22,272.13z"/>
	<circle class="st3" cx="299.99" cy="431.11" r="27.03"/>
</g>
</svg>
